<svg xmlns="http://www.w3.org/2000/svg" xmlns:xlink="http://www.w3.org/1999/xlink" viewBox="0 0 1198.58 1162.06"><defs><style>.a,.l,.n{fill:none;}.b,.f{fill:#1d1d1b;}.b{opacity:0.28;}.c{fill:#292929;}.d{fill:#b12e20;}.e{fill:url(#a);}.g{fill:#fcea10;}.h{clip-path:url(#b);}.i{fill:#3f4752;}.j{fill:#feded1;}.k{fill:#fec0a7;}.l{stroke:#3f4752;stroke-width:3px;}.l,.n{stroke-linecap:round;stroke-linejoin:round;}.m{fill:#fca33d;}.n{stroke:#fca33d;stroke-width:6px;}</style><radialGradient id="a" cx="22.81" cy="664.46" r="1446.44" gradientUnits="userSpaceOnUse"><stop offset="0" stop-color="#fff"/><stop offset="0.66" stop-color="#fdfdfd"/><stop offset="1" stop-color="#f5f5f5"/></radialGradient><clipPath id="b" transform="translate(0.14 -28.35)"><path class="a" d="M1149.21,294.66Q1166.29,147.33,1183.37,0H34.62V380.07c184.11,62.54,227.92,92.46,224.8,107.76-1.95,9.52-22.19,11.43-22,21,.48,23.47,88.27,40.39,121.85,45.33,61.42,9,141.4,14.49,228.85,14.49,88.66,0,169.63-5.62,231.38-14.87,73.14-11,119.32-27,119.32-44.95,0-10.3-22.31-11.62-27.19-23.26C902.06,462.75,961.43,407.24,1149.21,294.66Z"/></clipPath></defs><ellipse class="b" cx="599.29" cy="1050.69" rx="599.29" ry="111.37"/><path class="c" d="M907.76,493.85l-307.07,9.34c-1.78.06-3.57.06-5.35,0l-307.08-9.34c-31.29-1-41.54,16.94-42.33,36.8L208.87,1054.3c-.6,15.27,14.3,29,37,34.21,100.83,23.06,389.37,74.65,705-.12,22.33-5.29,36.92-19,36.32-34.08L953.48,527C952.69,507.13,939.06,492.9,907.76,493.85Z" transform="translate(0.14 -28.35)"/><path class="d" d="M598.34,661.43c-132.52,0-255.44-10.06-356.83-27.22L233.8,769.75C336,787.33,465,811.48,599.3,811.48c135.21,0,262.94-17.46,365.49-35.26l-7.11-142.43C855.81,651.2,732,661.43,598.34,661.43Z" transform="translate(0.14 -28.35)"/><ellipse class="c" cx="598.46" cy="479.4" rx="586.58" ry="167.12"/><path class="e" d="M611.57,448c-.77-.05-1.51-.11-2.28-.15-2.68,0-5.33,0-7.95,0s-5.28-.08-8-.08c-1.46.05-2.85.15-4.29.22l9.23,0Q605,447.94,611.57,448Z" transform="translate(0.14 -28.35)"/><path class="f" d="M611.57,447.15c-4.4,0-8.81-.33-13.25-.33-3.09,0-6.16.15-9.23.16-189.42.84-341.47,28.26-341.47,60.77,0,18.12,47.23,34.35,121.85,45.32,61.42,9,141.39,14.49,228.85,14.49,88.66,0,169.62-5.61,231.37-14.86,73.15-11,119.33-27,119.33-45C949,475.48,799.11,448.33,611.57,447.15Z" transform="translate(0.14 -28.35)"/><polygon class="g" points="999.12 73.07 1014.56 53.52 1022.69 77.07 1042.24 92.5 1018.7 100.63 1003.26 120.18 995.13 96.64 975.58 81.2 999.12 73.07"/><polygon class="g" points="948.8 175.4 954.98 167.58 958.24 177 966.06 183.18 956.64 186.44 950.46 194.26 947.21 184.84 939.38 178.66 948.8 175.4"/><path class="g" d="M945.69,316.81A14.14,14.14,0,1,0,928.45,327,14.14,14.14,0,0,0,945.69,316.81Z" transform="translate(0.14 -28.35)"/><path class="g" d="M1046.38,308.06a8.09,8.09,0,1,0,5.8,9.86A8.09,8.09,0,0,0,1046.38,308.06ZM1043,321.27a5.56,5.56,0,1,1,6.78-4A5.55,5.55,0,0,1,1043,321.27Z" transform="translate(0.14 -28.35)"/><path class="g" d="M1024.88,233.17a13.34,13.34,0,1,0,9.57,16.25A13.32,13.32,0,0,0,1024.88,233.17ZM1019.24,255a9.17,9.17,0,1,1,11.17-6.57A9.17,9.17,0,0,1,1019.24,255Z" transform="translate(0.14 -28.35)"/><polygon class="g" points="1134.45 276.55 1152.57 272.29 1144.93 289.26 1154.57 305.18 1136.07 303.15 1123.91 317.25 1120.12 299.02 1102.96 291.81 1119.12 282.58 1120.67 264.03 1134.45 276.55"/><g class="h"><rect class="i" x="338.76" width="522" height="674.78" rx="11.82"/><polygon class="j" points="831.48 35.65 368.05 35.65 368.05 612.39 781.24 612.39 831.48 562.16 831.48 35.65"/><polygon class="k" points="780.24 561.16 833.89 561.16 780.24 614.81 780.24 561.16"/><path class="i" d="M831.34,590.51,781.1,640.75V590.51h50.24m4.83-2H779.1v57.06l3.42-3.41,50.23-50.24,3.42-3.41Z" transform="translate(0.14 -28.35)"/><rect class="l" x="433.61" y="126.04" width="63.66" height="63.66"/><rect class="l" x="433.61" y="238.08" width="63.66" height="63.66"/><rect class="l" x="433.61" y="350.12" width="63.66" height="63.66"/><rect class="l" x="433.61" y="462.16" width="63.66" height="63.66"/><rect class="m" x="535.47" y="146.41" width="224.08" height="20.37"/><rect class="m" x="535.47" y="261" width="224.08" height="20.37"/><rect class="m" x="535.47" y="373.04" width="224.08" height="20.37"/><rect class="m" x="535.47" y="485.08" width="224.08" height="20.37"/><polyline class="n" points="437.07 137.55 463.03 172.09 506.28 115.86"/><polyline class="n" points="437.07 252.02 463.03 286.57 506.28 230.34"/></g></svg>